/* XPM */
static char * icon_xpm[] = {
"16 16 204 2",
"  	c None",
". 	c #D1D0D0",
"+ 	c #C7C7C7",
"@ 	c #BDBDBD",
"# 	c #DBDBDB",
"$ 	c #D7D7D7",
"% 	c #C1C1C3",
"& 	c #919290",
"* 	c #878884",
"= 	c #7A7B75",
"- 	c #7C7E76",
"; 	c #8D8D89",
"> 	c #82827F",
", 	c #9F9F9E",
"' 	c #CCCCCD",
") 	c #8A8C82",
"! 	c #86886F",
"~ 	c #B1B495",
"{ 	c #DADCBB",
"] 	c #E0E3C2",
"^ 	c #CDD1AF",
"/ 	c #A1A485",
"( 	c #7C7D68",
"_ 	c #848480",
": 	c #B4B3B4",
"< 	c #D0D1D1",
"[ 	c #9D9E8E",
"} 	c #9FA56A",
"| 	c #DDE3AD",
"1 	c #EDF2C5",
"2 	c #EBEFC2",
"3 	c #E8EDC2",
"4 	c #ECF0C3",
"5 	c #ECF1C3",
"6 	c #C9CF91",
"7 	c #8C9061",
"8 	c #878883",
"9 	c #C8C8C9",
"0 	c #CACACA",
"a 	c #A6A79E",
"b 	c #989F5A",
"c 	c #CCD67A",
"d 	c #DAE299",
"e 	c #DBE29B",
"f 	c #D3DB99",
"g 	c #CAD096",
"h 	c #D5DC9A",
"i 	c #DBE29D",
"j 	c #D8E091",
"k 	c #BEC868",
"l 	c #8B8F64",
"m 	c #B9B9B7",
"n 	c #C9C9C9",
"o 	c #B9B9B8",
"p 	c #8C906A",
"q 	c #BFC962",
"r 	c #C9D46D",
"s 	c #CBD575",
"t 	c #CBD577",
"u 	c #C2CB75",
"v 	c #B4BC6E",
"w 	c #C4CD75",
"x 	c #CBD576",
"y 	c #C9D472",
"z 	c #C9D46B",
"A 	c #ADB65B",
"B 	c #939385",
"C 	c #B6B6B6",
"D 	c #A3A49D",
"E 	c #9AA25B",
"F 	c #CBD66C",
"G 	c #C9D46C",
"H 	c #C1CB68",
"I 	c #B8C264",
"J 	c #B5BF63",
"K 	c #B0B960",
"L 	c #B7C064",
"M 	c #B9C364",
"N 	c #C2CD69",
"O 	c #C8D369",
"P 	c #888B62",
"Q 	c #AFB0AE",
"R 	c #AAAAAA",
"S 	c #929388",
"T 	c #B6BE65",
"U 	c #D1DA74",
"V 	c #CED773",
"W 	c #CDD773",
"X 	c #C4CD6F",
"Y 	c #BCC46D",
"Z 	c #B7C068",
"` 	c #C1CA6F",
" .	c #C3CB70",
"..	c #CED873",
"+.	c #D1DB74",
"@.	c #989E60",
"#.	c #9F9F9D",
"$.	c #9F9F9F",
"%.	c #8F9082",
"&.	c #BFC76D",
"*.	c #D5DE7C",
"=.	c #D4DD7B",
"-.	c #C7CF77",
";.	c #D0D87A",
">.	c #CAD277",
",.	c #BBC26F",
"'.	c #C0C775",
").	c #C6CD76",
"!.	c #D3DB7B",
"~.	c #D8E17C",
"{.	c #A5AB66",
"].	c #939491",
"^.	c #939393",
"/.	c #8C8D84",
"(.	c #BDC373",
"_.	c #D8DF82",
":.	c #CAD07C",
"<.	c #C8CD7C",
"[.	c #C9D07D",
"}.	c #CBD27D",
"|.	c #CED57F",
"1.	c #CFD57F",
"2.	c #C5CB7B",
"3.	c #C2C77A",
"4.	c #C9CF7C",
"5.	c #DCE283",
"6.	c #A1A56F",
"7.	c #8E8D8C",
"8.	c #888989",
"9.	c #878783",
"0.	c #ACB078",
"a.	c #E0E68A",
"b.	c #D0D584",
"c.	c #DAE089",
"d.	c #D1D686",
"e.	c #DBE08A",
"f.	c #CAD081",
"g.	c #DCE28A",
"h.	c #DFE48B",
"i.	c #CFD484",
"j.	c #D4D986",
"k.	c #DBE185",
"l.	c #949677",
"m.	c #858484",
"n.	c #7D7C7C",
"o.	c #94957C",
"p.	c #D8DD8A",
"q.	c #E3E893",
"r.	c #D5DA8C",
"s.	c #D4D88D",
"t.	c #DDE093",
"u.	c #CFD28C",
"v.	c #E4E897",
"w.	c #DDE092",
"x.	c #D7DB8E",
"y.	c #E6EB93",
"z.	c #C3C782",
"A.	c #83847B",
"B.	c #7A7B7B",
"C.	c #727272",
"D.	c #797975",
"E.	c #ACAE82",
"F.	c #E5E997",
"G.	c #EAEEA0",
"H.	c #E1E49E",
"I.	c #E1E49F",
"J.	c #DDDF9C",
"K.	c #E0E39F",
"L.	c #E2E59F",
"M.	c #EDF0A1",
"N.	c #D8DB91",
"O.	c #94967D",
"P.	c #707070",
"Q.	c #666566",
"R.	c #767671",
"S.	c #ACAD88",
"T.	c #E0E29F",
"U.	c #F4F5AD",
"V.	c #F5F7AF",
"W.	c #F5F7AE",
"X.	c #EFF2A9",
"Y.	c #D2D498",
"Z.	c #989881",
"`.	c #6B6B69",
" +	c #646465",
".+	c #5A5A5A",
"++	c #656563",
"@+	c #898A7C",
"#+	c #B5B694",
"$+	c #C8C996",
"%+	c #CDCE97",
"&+	c #C4C596",
"*+	c #A8A98D",
"=+	c #7A7A72",
"-+	c #5D5D5D",
";+	c #595959",
">+	c #4F4F50",
",+	c #4F4F4F",
"'+	c #505050",
")+	c #616160",
"!+	c #686765",
"~+	c #5B5B5A",
"{+	c #4D4E4D",
"]+	c #4E4E4E",
"            . + @ # $           ",
"        % & * = - ; > , '       ",
"      ' ) ! ~ { ] ^ / ( _ :     ",
"    < [ } | 1 2 3 4 5 6 7 8 9   ",
"  0 a b c d e f g h i j k l m n ",
"  o p q r s t u v w x y z A B @ ",
"C D E F G H I J K L M N G O P Q ",
"R S T U V W X Y Z `  ...V +.@.#.",
"$.%.&.*.=.-.;.>.,.'.).=.!.~.{.].",
"^./.(._.:.<.[.}.|.1.2.3.4.5.6.7.",
"8.9.0.a.b.c.d.e.f.g.h.i.j.k.l.m.",
"  n.o.p.q.r.s.t.u.v.w.x.y.z.A.B.",
"  C.D.E.F.G.H.I.J.K.L.M.N.O.P.  ",
"    Q.R.S.T.U.V.V.W.X.Y.Z.`. +  ",
"      .+++@+#+$+%+&+*+=+-+;+    ",
"        >+,+'+)+!+~+{+]+]+      "};
